<?xml version="1.0" encoding="UTF-8"?>
<!-- NVIDIA-inspired eye/claw symbolic glyph (original, not trademarked) -->
<svg xmlns="http://www.w3.org/2000/svg" width="16" height="16" viewBox="0 0 16 16">
  <path d="M 5.5 4.5 C 7 3.5 9.5 3.8 11 5.5 C 12.5 7.2 12.5 9.5 11 11 C 9.5 12.5 7 12.5 5.5 11.5 C 4 10.5 3.5 8.5 4.2 7 C 4.9 5.5 6 5 7.5 5.5 C 8.5 5.8 9 6.5 9 7.5 C 9 8.5 8.2 9.2 7.5 9.2 C 6.8 9.2 6.5 8.7 6.5 8 C 6.5 7.3 7 6.8 7.5 7 M 2 8 C 2 4.7 4.7 2 8 2 C 11.3 2 14 4.7 14 8 C 14 11.3 11.3 14 8 14 C 4.7 14 2 11.3 2 8 Z" fill="currentColor" fill-rule="evenodd"/>
</svg>
