<?xml version="1.0" encoding="UTF-8"?>
<!-- Intel-inspired arc/circuit symbolic glyph (original, not trademarked) -->
<svg xmlns="http://www.w3.org/2000/svg" width="16" height="16" viewBox="0 0 16 16">
  <path d="M 8 3 C 5.2 3 3 5.2 3 8 C 3 10.8 5.2 13 8 13 C 10.8 13 13 10.8 13 8 L 11 8 C 11 9.7 9.7 11 8 11 C 6.3 11 5 9.7 5 8 C 5 6.3 6.3 5 8 5 Z M 8 6.5 C 7.2 6.5 6.5 7.2 6.5 8 C 6.5 8.8 7.2 9.5 8 9.5 C 8.8 9.5 9.5 8.8 9.5 8 C 9.5 7.2 8.8 6.5 8 6.5 Z M 12 3 L 12 5 L 14 5 L 14 3 Z" fill="currentColor"/>
</svg>
